<?xml version="1.0" encoding="iso-8859-1"?>
<!-- Generator: Adobe Illustrator 19.0.0, SVG Export Plug-In . SVG Version: 6.00 Build 0)  -->
<svg version="1.1" id="Capa_1" xmlns="http://www.w3.org/2000/svg" xmlns:xlink="http://www.w3.org/1999/xlink" x="0px" y="0px"
	 viewBox="0 0 512 512" style="enable-background:new 0 0 512 512;" xml:space="preserve">
<path style="fill:#303C42;" d="M256,0C114.844,0,0,114.844,0,256s114.844,256,256,256s256-114.844,256-256S397.156,0,256,0z"/>
<path style="fill:#FED600;" d="M256,490.667C126.604,490.667,21.333,385.396,21.333,256c0-82.915,43.341-155.754,108.44-197.507
	c-2.539,4.112-2.215,9.482,1.352,13.048l21.333,21.333C154.542,94.958,157.271,96,160,96c2.729,0,5.458-1.042,7.542-3.125
	l21.333-21.333c4.167-4.167,4.167-10.917,0-15.083c-4.167-4.167-10.917-4.167-15.083,0L160,70.25l-13.792-13.792
	c-2.24-2.24-5.214-3.174-8.143-3.008C172.767,33.164,212.984,21.333,256,21.333c129.396,0,234.667,105.271,234.667,234.667
	S385.396,490.667,256,490.667z"/>
<path style="opacity:0.1;fill:#010101;enable-background:new    ;" d="M407.888,77.445C442.798,118.421,464,171.411,464,229.333
	C464,358.729,358.729,464,229.333,464c-57.922,0-110.913-21.202-151.888-56.112c43.077,50.563,107.081,82.779,178.555,82.779
	c129.396,0,234.667-105.271,234.667-234.667C490.667,184.526,458.451,120.522,407.888,77.445z"/>
<g>
	<circle style="fill:#303C42;" cx="170.667" cy="234.667" r="21.333"/>
	<circle style="fill:#303C42;" cx="341.333" cy="234.667" r="21.333"/>
	<path style="fill:#303C42;" d="M352,362.667c-13.344,0-20.094,8.979-24.563,14.927c-4.042,5.385-5.24,6.406-7.5,6.406
		c-2.26,0-3.458-1.021-7.5-6.406c-4.469-5.948-11.219-14.927-24.563-14.927s-20.083,8.99-24.542,14.938
		c-4.042,5.375-5.229,6.396-7.469,6.396c-2.229,0-3.406-1.01-7.427-6.396c-4.458-5.948-11.188-14.938-24.51-14.938
		c-13.333,0-20.063,8.99-24.521,14.938c-4.042,5.375-5.219,6.396-7.458,6.396c-2.229,0-3.417-1.021-7.438-6.396
		c-4.458-5.948-11.188-14.938-24.51-14.938c-5.896,0-10.667,4.771-10.667,10.667S154.104,384,160,384
		c2.229,0,3.406,1.01,7.427,6.385c4.458,5.958,11.188,14.948,24.521,14.948s20.063-8.99,24.521-14.938
		c4.042-5.375,5.219-6.396,7.458-6.396c2.229,0,3.406,1.01,7.427,6.396c4.458,5.948,11.188,14.938,24.51,14.938
		c13.333,0,20.073-8.979,24.531-14.927c4.042-5.385,5.229-6.406,7.479-6.406c2.26,0,3.458,1.021,7.5,6.406
		c4.469,5.948,11.219,14.927,24.563,14.927s20.094-8.979,24.563-14.927c4.042-5.385,5.24-6.406,7.5-6.406
		c5.896,0,10.667-4.771,10.667-10.667S357.896,362.667,352,362.667z"/>
	<path style="fill:#303C42;" d="M173.792,178.208c2.083,2.083,4.813,3.125,7.542,3.125c2.729,0,5.458-1.042,7.542-3.125
		c4.167-4.167,4.167-10.917,0-15.083l-21.333-21.333c-4.167-4.167-10.917-4.167-15.083,0l-21.333,21.333
		c-4.167,4.167-4.167,10.917,0,15.083c4.167,4.167,10.917,4.167,15.083,0L160,164.417L173.792,178.208z"/>
	<path style="fill:#303C42;" d="M135.542,109.792l-21.333-21.333c-4.167-4.167-10.917-4.167-15.083,0
		c-4.167,4.167-4.167,10.917,0,15.083l13.792,13.792l-13.792,13.792c-4.167,4.167-4.167,10.917,0,15.083
		c2.083,2.083,4.813,3.125,7.542,3.125c2.729,0,5.458-1.042,7.542-3.125l21.333-21.333
		C139.708,120.708,139.708,113.958,135.542,109.792z"/>
	<path style="fill:#303C42;" d="M205.792,146.208c2.083,2.083,4.813,3.125,7.542,3.125c2.729,0,5.458-1.042,7.542-3.125
		c4.167-4.167,4.167-10.917,0-15.083l-13.792-13.792l13.792-13.792c4.167-4.167,4.167-10.917,0-15.083
		c-4.167-4.167-10.917-4.167-15.083,0l-21.333,21.333c-4.167,4.167-4.167,10.917,0,15.083L205.792,146.208z"/>
</g>
<linearGradient id="SVGID_1_" gradientUnits="userSpaceOnUse" x1="-45.5784" y1="639.555" x2="-23.8278" y2="629.4138" gradientTransform="matrix(21.3333 0 0 -21.3333 996.3334 13791.667)">
	<stop  offset="0" style="stop-color:#FFFFFF;stop-opacity:0.2"/>
	<stop  offset="1" style="stop-color:#FFFFFF;stop-opacity:0"/>
</linearGradient>
<path style="fill:url(#SVGID_1_);" d="M256,0C114.844,0,0,114.844,0,256s114.844,256,256,256s256-114.844,256-256S397.156,0,256,0z"
	/>
<g>
</g>
<g>
</g>
<g>
</g>
<g>
</g>
<g>
</g>
<g>
</g>
<g>
</g>
<g>
</g>
<g>
</g>
<g>
</g>
<g>
</g>
<g>
</g>
<g>
</g>
<g>
</g>
<g>
</g>
</svg>
