<?xml version="1.0" encoding="iso-8859-1"?>
<!-- Generator: Adobe Illustrator 19.0.0, SVG Export Plug-In . SVG Version: 6.00 Build 0)  -->
<svg version="1.1" id="Capa_1" xmlns="http://www.w3.org/2000/svg" xmlns:xlink="http://www.w3.org/1999/xlink" x="0px" y="0px"
	 viewBox="0 0 512 512" style="enable-background:new 0 0 512 512;" xml:space="preserve">
<path style="fill:#303C42;" d="M256,0C114.844,0,0,114.844,0,256s114.844,256,256,256s256-114.844,256-256S397.156,0,256,0z"/>
<path style="fill:#FED600;" d="M256,490.667C126.604,490.667,21.333,385.396,21.333,256S126.604,21.333,256,21.333
	S490.667,126.604,490.667,256S385.396,490.667,256,490.667z"/>
<path style="opacity:0.1;fill:#010101;enable-background:new    ;" d="M407.888,77.445C442.798,118.421,464,171.411,464,229.333
	C464,358.729,358.729,464,229.333,464c-57.922,0-110.913-21.202-151.888-56.112c43.077,50.563,107.081,82.779,178.555,82.779
	c129.396,0,234.667-105.271,234.667-234.667C490.667,184.526,458.451,120.522,407.888,77.445z"/>
<g>
	<circle style="fill:#303C42;" cx="170.667" cy="192" r="21.333"/>
	<circle style="fill:#303C42;" cx="341.333" cy="192" r="21.333"/>
	<path style="fill:#303C42;" d="M138.677,149.333c1.604,0,3.229-0.365,4.76-1.125l42.667-21.333
		c5.271-2.635,7.406-9.042,4.771-14.313c-2.635-5.271-9.042-7.385-14.313-4.771l-42.667,21.333
		c-5.271,2.635-7.406,9.042-4.771,14.313C131,147.177,134.76,149.333,138.677,149.333z"/>
	<path style="fill:#303C42;" d="M378.104,129.125l-42.667-21.333c-5.26-2.615-11.677-0.5-14.313,4.771
		c-2.635,5.271-0.5,11.677,4.771,14.313l42.667,21.333c1.531,0.76,3.156,1.125,4.76,1.125c3.917,0,7.677-2.156,9.552-5.896
		C385.51,138.167,383.375,131.76,378.104,129.125z"/>
	<path style="fill:#303C42;" d="M256,298.667c-79.292,0-119.917,53.219-121.594,55.469c-10.469,13.958-7.677,33.948,6.24,44.563
		c13.854,10.594,33.927,7.969,44.708-5.844c0.969-1.24,24.188-30.188,70.646-30.188c46.417,0,69.583,28.833,70.406,29.865
		c6.01,8.021,15.583,12.802,25.615,12.802c6.969,0,13.604-2.219,19.177-6.396c6.844-5.135,11.271-12.615,12.479-21.083
		c1.208-8.458-0.948-16.885-6.063-23.698C375.917,351.885,335.292,298.667,256,298.667z"/>
</g>
<path style="fill:#B72025;" d="M358.396,381.865c-4.563,3.448-11.396,2.563-15.073-2.313c-3.063-3.917-31.604-38.219-87.323-38.219
	c-55.771,0-84.365,34.427-87.458,38.385c-3.604,4.646-10.333,5.531-14.958,2.021c-4.719-3.594-5.646-10.104-2.094-14.833
	C152.917,365,187.281,320,256,320s103.083,45,104.531,46.938c1.708,2.271,2.427,5.083,2.031,7.906
	C362.156,377.667,360.688,380.156,358.396,381.865z"/>
<path style="opacity:0.1;fill:#010101;enable-background:new    ;" d="M162.184,377.599c1.427-1.906,35.792-46.906,104.51-46.906
	c46.219,0,76.527,20.188,92.103,34.108C351.362,355.902,317.586,320,256,320c-68.719,0-103.083,45-104.51,46.906
	c-3.552,4.729-2.625,11.24,2.094,14.833c1.966,1.492,4.315,2.027,6.639,1.979C160.276,381.594,160.786,379.458,162.184,377.599z"/>
<linearGradient id="SVGID_1_" gradientUnits="userSpaceOnUse" x1="-45.5784" y1="639.555" x2="-23.8278" y2="629.4138" gradientTransform="matrix(21.3333 0 0 -21.3333 996.3334 13791.667)">
	<stop  offset="0" style="stop-color:#FFFFFF;stop-opacity:0.2"/>
	<stop  offset="1" style="stop-color:#FFFFFF;stop-opacity:0"/>
</linearGradient>
<path style="fill:url(#SVGID_1_);" d="M256,0C114.844,0,0,114.844,0,256s114.844,256,256,256s256-114.844,256-256S397.156,0,256,0z"
	/>
<g>
</g>
<g>
</g>
<g>
</g>
<g>
</g>
<g>
</g>
<g>
</g>
<g>
</g>
<g>
</g>
<g>
</g>
<g>
</g>
<g>
</g>
<g>
</g>
<g>
</g>
<g>
</g>
<g>
</g>
</svg>
